<svg xmlns="http://www.w3.org/2000/svg" version="1.1" xmlns:xlink="http://www.w3.org/1999/xlink" xmlns:svgjs="http://svgjs.dev/svgjs" viewBox="250.28 679.32 998.17 141.82"><rect width="1500" height="1500" fill="none"></rect><g transform="matrix(0.6666666666666666,0,0,0.6666666666666666,249.39393939393938,679.5614175708558)"><svg viewBox="0 0 396 56" data-background-color="none" preserveAspectRatio="xMidYMid meet" height="212" width="1500" xmlns="http://www.w3.org/2000/svg" xmlns:xlink="http://www.w3.org/1999/xlink"><g id="tight-bounds" transform="matrix(1,0,0,1,0.2400000000000091,-0.09037299977302382)"><svg viewBox="0 0 395.52 56.18074599954607" height="56.18074599954607" width="395.52"><g><svg viewBox="0 0 496.8304364715683 70.57115836431227" height="56.18074599954607" width="395.52"><g transform="matrix(1,0,0,1,101.31043647156835,8.329445353159851)"><svg viewBox="0 0 395.52 53.912267657992565" height="53.912267657992565" width="395.52"><g id="textblocktransform"><svg viewBox="0 0 395.52 53.912267657992565" height="53.912267657992565" width="395.52" id="textblock"><g><svg viewBox="0 0 395.52 53.912267657992565" height="53.912267657992565" width="395.52"><g transform="matrix(1,0,0,1,0,0)"><svg width="395.52" viewBox="1.27 -31.74 236.41 32.23" height="53.912267657992565" data-palette-color="#e0e1dd"><path d="M1.27 0L15.09 0Q14.79-1.22 13.77-1.32L13.77-1.32 11.18-1.32 11.18-14.36 24.41-14.36 24.41-1.32 20.51-1.32 20.51 0 34.28 0Q33.89-1.22 33.01-1.32L33.01-1.32 30.42-1.32 30.42-27.98 34.28-27.98 34.28-29.3 20.51-29.3 20.51-27.98 24.41-27.98 24.41-15.82 11.18-15.82 11.18-27.98 15.09-27.98 15.09-29.3 1.27-29.3 1.27-27.98 5.18-27.98 5.18-1.32 1.27-1.32 1.27 0ZM60.84-1.27L60.84-1.27 58.93-1.27 58.93-20.9 50.63-20.9 50.63-19.68 53.56-19.68 53.51-7.91Q53.27-4 50.68-2.44L50.68-2.44Q49.7-1.9 48.73-1.9L48.73-1.9Q45.51-1.9 45.02-5.57L45.02-5.57Q44.92-6.2 44.92-6.84L44.92-6.84 44.92-20.9 36.42-20.9 36.42-19.68 39.55-19.68 39.55-7.62Q39.6 0.44 46.53 0.49L46.53 0.49Q50.49 0.49 52.83-2.83L52.83-2.83Q53.32-3.56 53.66-4.3L53.66-4.3 53.9 0 62.01 0Q62.01-1.12 61.37-1.22L61.37-1.22Q61.13-1.27 60.84-1.27ZM78.51 0.49L78.51 0.49Q83.1 0.49 85.98-2.98L85.98-2.98Q88.62-6.15 88.62-10.99L88.62-10.99Q88.62-17.04 85-19.92L85-19.92Q82.91-21.58 80.17-21.58L80.17-21.58Q75-21.58 72.6-16.6L72.6-16.6Q72.55-16.5 72.5-16.41L72.5-16.41 72.5-31.74 64.06-31.74 64.06-30.47 67.08-30.47 67.08-3.96Q67.08-1.81 65.62-1.42L65.62-1.42Q64.99-1.27 64.06-1.27L64.06-1.27 64.06 0 71.09 0 71.53-3.37Q73.92 0.44 78.51 0.49ZM78.07-19.34L78.07-19.34Q82.47-19.34 82.76-11.52L82.76-11.52Q82.76-10.99 82.76-10.45L82.76-10.45Q82.76-2.34 79-1.03L79-1.03Q78.32-0.78 77.63-0.78L77.63-0.78Q74.26-0.78 73.04-4.93L73.04-4.93Q72.46-6.88 72.46-9.52L72.46-9.52Q72.46-15.82 75.29-18.26L75.29-18.26Q76.56-19.34 78.07-19.34ZM91.45 0L105.27 0 105.27-1.32 101.36-1.32 101.36-13.38 104.48-13.38 111.91 0.05 120.11 0Q120.11-1.07 119.47-1.22L119.47-1.22Q119.18-1.27 118.89-1.27L118.89-1.27 117.86-1.27 110.2-13.92Q115.18-15.23 116.55-19.19L116.55-19.19Q116.94-20.41 116.94-21.63L116.94-21.63Q116.94-25.29 113.71-27.49L113.71-27.49Q111.03-29.3 107.17-29.3L107.17-29.3 91.45-29.3 91.45-27.98 95.35-27.98 95.35-1.32 91.45-1.32 91.45 0ZM101.36-27.98L104.73-27.98Q108.68-27.98 110.05-24.32L110.05-24.32Q110.54-23 110.54-21.48L110.54-21.48Q110.54-17.58 108.05-15.77L108.05-15.77Q106.73-14.84 105.02-14.84L105.02-14.84 101.36-14.84 101.36-27.98ZM132.41-20.31L132.41-20.31Q135.44-20.31 136.03-16.75L136.03-16.75Q136.17-15.97 136.17-15.14L136.17-15.14Q136.17-12.84 134.51-12.26L134.51-12.26Q133.44-11.96 131.39-12.01L131.39-12.01 127.63-12.16Q127.82-19.09 131.29-20.17L131.29-20.17Q131.87-20.31 132.41-20.31ZM141.35-4.93L141.35-4.93 140.18-5.32Q138.76-2.25 135.68-1.27L135.68-1.27Q134.66-0.93 133.58-0.93L133.58-0.93Q127.87-0.93 127.63-10.64L127.63-10.64Q127.63-10.69 127.63-10.74L127.63-10.74 132.56-10.64Q139.88-10.5 141.35-12.74L141.35-12.74Q141.84-13.53 141.84-14.6L141.84-14.6Q141.84-18.46 137.93-20.41L137.93-20.41Q135.49-21.58 132.41-21.58L132.41-21.58Q126.8-21.58 123.82-17.53L123.82-17.53Q121.72-14.65 121.72-10.55L121.72-10.55Q121.72-3.86 126.65-0.98L126.65-0.98Q129.29 0.49 132.56 0.49L132.56 0.49Q138.12 0.49 140.62-3.47L140.62-3.47Q141.05-4.2 141.35-4.93ZM150.62-19.68L153.94-19.68 153.94-20.9 143.25-20.9 143.25-19.68 145.25-19.68 151.35-3.27Q152.38-0.54 153.21-0.05L153.21-0.05Q153.75 0.24 154.72 0.24L154.72 0.24 156.14 0.24 163.17-18.16Q163.66-19.48 164.44-19.63L164.44-19.63Q164.73-19.68 165.03-19.68L165.03-19.68Q165.86-19.68 165.95-19.97L165.95-19.97Q166.05-20.26 166.05-20.9L166.05-20.9 158.29-20.9 158.29-19.68 162.15-19.68 156.29-4.35 150.62-19.68ZM178.01-1.27L178.01-1.27 176.01-1.27 176.01-20.9 167.47-20.9 167.47-19.68 170.64-19.68 170.64-3.91Q170.64-1.81 169.03-1.42L169.03-1.42Q168.44-1.27 167.47-1.27L167.47-1.27 167.47 0 179.18 0Q179.18-1.12 178.45-1.22L178.45-1.22Q178.26-1.27 178.01-1.27ZM176.5-27.54L176.5-27.54Q176.5-29.54 174.69-30.52L174.69-30.52Q173.96-30.91 173.18-30.91L173.18-30.91Q171.18-30.91 170.25-29.1L170.25-29.1Q169.86-28.32 169.86-27.54L169.86-27.54Q169.86-25.49 171.66-24.61L171.66-24.61Q172.4-24.27 173.18-24.27L173.18-24.27Q175.18-24.27 176.11-25.98L176.11-25.98Q176.5-26.71 176.5-27.54ZM192.66-20.31L192.66-20.31Q195.69-20.31 196.27-16.75L196.27-16.75Q196.42-15.97 196.42-15.14L196.42-15.14Q196.42-12.84 194.76-12.26L194.76-12.26Q193.68-11.96 191.63-12.01L191.63-12.01 187.87-12.16Q188.07-19.09 191.54-20.17L191.54-20.17Q192.12-20.31 192.66-20.31ZM201.59-4.93L201.59-4.93 200.42-5.32Q199.01-2.25 195.93-1.27L195.93-1.27Q194.9-0.93 193.83-0.93L193.83-0.93Q188.12-0.93 187.87-10.64L187.87-10.64Q187.87-10.69 187.87-10.74L187.87-10.74 192.8-10.64Q200.13-10.5 201.59-12.74L201.59-12.74Q202.08-13.53 202.08-14.6L202.08-14.6Q202.08-18.46 198.18-20.41L198.18-20.41Q195.73-21.58 192.66-21.58L192.66-21.58Q187.04-21.58 184.06-17.53L184.06-17.53Q181.96-14.65 181.96-10.55L181.96-10.55Q181.96-3.86 186.9-0.98L186.9-0.98Q189.53 0.49 192.8 0.49L192.8 0.49Q198.37 0.49 200.86-3.47L200.86-3.47Q201.3-4.2 201.59-4.93ZM211.26-19.68L214.43-19.68 214.43-20.9 203.64-20.9 203.64-19.68 205.74-19.68 211.55-3.27Q212.53-0.44 213.6 0.05L213.6 0.05Q214.09 0.24 214.87 0.24L214.87 0.24 216.29 0.24 220.68-13.43 224.25-3.27Q225.18-0.49 225.91-0.05L225.91-0.05Q226.44 0.24 227.37 0.24L227.37 0.24 228.74 0.24 234.79-18.12Q235.23-19.48 236.11-19.63L236.11-19.63Q236.36-19.68 236.6-19.68L236.6-19.68Q237.53-19.68 237.63-20.36L237.63-20.36Q237.68-20.61 237.68-20.9L237.68-20.9 230.64-20.9 230.64-19.68 233.77-19.68 228.98-4.59 223.86-19.68 226.93-19.68 226.93-20.9 218.1-20.9 219.95-15.58 216.48-4.54 211.26-19.68Z" opacity="1" transform="matrix(1,0,0,1,0,0)" fill="#e0e1dd" class="wordmark-text-0" data-fill-palette-color="primary" id="text-0"></path></svg></g></svg></g></svg></g></svg></g><g><svg viewBox="0 0 88.5830439719401 70.57115836431227" height="70.57115836431227" width="88.5830439719401"><g><svg xmlns="http://www.w3.org/2000/svg" xmlns:xlink="http://www.w3.org/1999/xlink" version="1.1" x="0" y="0" viewBox="-250 361.2 90 71.69999999999999" style="enable-background:new -255 347 100 100;" xml:space="preserve" height="70.57115836431227" width="88.5830439719401" class="icon-icon-0" data-fill-palette-color="accent" id="icon-0"><path d="M-162 361.2H-248C-249.1 361.2-250 362.1-250 363.2V419.9C-250 421-249.1 421.9-248 421.9H-214.6V432.9L-207.8 421.9H-162C-160.9 421.9-160 421-160 419.9V363.2C-160 362.1-160.9 361.2-162 361.2M-175.5 378.4L-174.1 374.2-172.7 378.4H-168.3L-171.9 381-170.5 385.2-174.1 382.6-177.7 385.2-176.3 381-179.9 378.4zM-191 378.4L-189.6 374.2-188.2 378.4H-183.8L-187.4 381-186 385.2-189.6 382.6-193.2 385.2-191.8 381-195.4 378.4zM-206.4 378.4L-205 374.2-203.6 378.4H-199.2L-202.8 381-201.4 385.2-205 382.6-208.6 385.2-207.2 381-210.8 378.4zM-221.8 378.4L-220.4 374.2-219 378.4H-214.6L-218.2 381-216.8 385.2-220.4 382.6-224 385.2-222.6 381-226.2 378.4zM-237.2 378.4L-235.8 374.2-234.4 378.4H-230L-233.6 381-232.2 385.2-235.8 382.6-239.4 385.2-238 381-241.6 378.4zM-178.2 410.4H-239.5C-240.8 410.4-241.8 409.6-241.8 408.7S-240.8 407-239.5 407H-178.2C-176.9 407-175.9 407.8-175.9 408.7-175.8 409.7-176.9 410.4-178.2 410.4M-169.2 400.3H-239.2C-240.7 400.3-241.9 399.5-241.9 398.6-241.9 397.6-240.7 396.9-239.2 396.9H-169.2C-167.7 396.9-166.5 397.7-166.5 398.6-166.5 399.6-167.7 400.3-169.2 400.3" fill="#0074d9" data-fill-palette-color="accent"></path></svg></g></svg></g></svg></g><defs></defs></svg><rect width="395.52" height="56.18074599954607" fill="none" stroke="none" visibility="hidden"></rect></g></svg></g></svg>
